<?xml version="1.0" encoding="UTF-8"?>
<svg xmlns="http://www.w3.org/2000/svg" xmlns:xlink="http://www.w3.org/1999/xlink" width="24px" height="23px" viewBox="0 0 24 23" version="1.1">
<g id="surface1">
<path style=" stroke:none;fill-rule:nonzero;fill:rgb(100%,100%,100%);fill-opacity:1;" d="M 11.292969 22.90625 C 10.554688 22.910156 9.847656 22.613281 9.328125 22.082031 L 0.808594 13.4375 C -0.265625 12.339844 -0.265625 10.570312 0.808594 9.476562 L 9.328125 0.824219 C 9.984375 0.160156 10.921875 -0.128906 11.832031 0.0546875 C 12.742188 0.234375 13.5 0.863281 13.859375 1.730469 C 14.300781 2.777344 14.066406 3.992188 13.261719 4.789062 L 9.472656 8.648438 L 20.886719 8.648438 C 21.921875 8.578125 22.910156 9.097656 23.449219 9.992188 C 23.988281 10.890625 23.988281 12.015625 23.449219 12.914062 C 22.910156 13.808594 21.921875 14.328125 20.886719 14.257812 C 20.550781 14.269531 20.230469 14.09375 20.058594 13.800781 C 19.886719 13.507812 19.886719 13.140625 20.058594 12.84375 C 20.230469 12.550781 20.550781 12.375 20.886719 12.386719 C 21.382812 12.371094 21.777344 11.957031 21.777344 11.453125 C 21.777344 10.949219 21.382812 10.539062 20.886719 10.519531 L 7.253906 10.519531 C 6.882812 10.519531 6.546875 10.289062 6.402344 9.941406 C 6.257812 9.59375 6.335938 9.191406 6.597656 8.925781 L 11.949219 3.472656 C 12.214844 3.203125 12.292969 2.800781 12.152344 2.449219 C 12.007812 2.097656 11.667969 1.867188 11.292969 1.871094 C 11.046875 1.867188 10.808594 1.96875 10.636719 2.144531 L 2.121094 10.792969 C 1.757812 11.15625 1.757812 11.75 2.121094 12.117188 L 10.636719 20.761719 C 10.808594 20.941406 11.046875 21.039062 11.292969 21.039062 C 11.667969 21.039062 12.003906 20.808594 12.148438 20.460938 C 12.292969 20.109375 12.214844 19.707031 11.949219 19.4375 L 6.597656 13.984375 C 6.339844 13.714844 6.265625 13.316406 6.40625 12.96875 C 6.550781 12.625 6.882812 12.398438 7.253906 12.394531 L 16.265625 12.394531 C 16.765625 12.414062 17.15625 12.824219 17.15625 13.328125 C 17.15625 13.832031 16.765625 14.246094 16.265625 14.265625 L 9.472656 14.265625 L 13.261719 18.125 C 14.050781 18.929688 14.285156 20.136719 13.855469 21.183594 C 13.421875 22.230469 12.414062 22.910156 11.292969 22.914062 Z M 11.292969 22.90625 "/>
</g>
</svg>
