<svg xmlns="http://www.w3.org/2000/svg" width="16.883" height="19" data-src="static/media/passwordIcon.0a7aa54f.svg" class="injected-svg" fill="#fff"><g data-name="Grupo 10737"><g data-name="Grupo 10736"><path d="M4.471 11.961a.706.706 0 0 1 .709.7.709.709 0 0 1-1.418 0 .706.706 0 0 1 .709-.7Z"/><path data-name="Path" d="M6.421 12.661a.709.709 0 0 0 1.418 0 .709.709 0 0 0-1.418 0ZM9.08 12.661a.709.709 0 0 0 1.418 0 .709.709 0 0 0-1.418 0ZM11.774 12.661a.709.709 0 0 0 1.418 0 .709.709 0 0 0-1.418 0Z"/><path data-name="Sustracción 1" d="M13.547 18.5H3.337A2.828 2.828 0 0 1 .5 15.688V9.922A2.828 2.828 0 0 1 3.337 7.11h.85V4.629A4.2 4.2 0 0 1 8.441.5a4.2 4.2 0 0 1 4.254 4.129V7.11h.852a2.827 2.827 0 0 1 2.836 2.812v2.6a.709.709 0 0 1-1.418 0v-2.6a1.414 1.414 0 0 0-1.418-1.406H3.337a1.414 1.414 0 0 0-1.419 1.406v5.766a1.414 1.414 0 0 0 1.418 1.406h10.21a1.414 1.414 0 0 0 1.418-1.406.709.709 0 0 1 1.418 0 2.827 2.827 0 0 1-2.835 2.812ZM8.441 1.906A2.785 2.785 0 0 0 5.6 4.629V7.11h5.672V4.629a2.784 2.784 0 0 0-2.831-2.723Z" stroke="rgba(0,0,0,0)" stroke-miterlimit="10"/></g></g></svg>