<svg xmlns="http://www.w3.org/2000/svg" xmlns:xlink="http://www.w3.org/1999/xlink" width="18" height="18" viewBox="0 0 18 18" class="injected-svg" data-src="static/media/pencil.d2544fa3.svg" style="outline: 0;; outline: 0;" tabindex="0" fill="white">
  <path id="Shape-69" d="M.207,17.8a.7.7,0,0,1-.181-.688l1.581-5.68a.7.7,0,0,1,.18-.309L11.852,1.055a3.6,3.6,0,0,1,5.093,5.093L9.352,13.721a.7.7,0,1,1-.993-1l6.387-6.37-3.1-3.1L3.3,11.6l3.581,3.592a.7.7,0,0,1-.306,1.173L.895,17.973A.7.7,0,0,1,.207,17.8Z"></path>
</svg>