<svg xmlns="http://www.w3.org/2000/svg" width="24" height="21.092" class="injected-svg" data-src="static/media/simulation_icon.54d692e8.svg" fill="#fff"><path d="M23.763 17.154a.936.936 0 0 0-.106-.183l-2.074-2.8a.937.937 0 0 0-.866-.578H4.219V3.75a1.877 1.877 0 0 1 1.875-1.871h11.812a1.877 1.877 0 0 1 1.875 1.875v6.093a.937.937 0 0 0 1.875 0V3.75A3.754 3.754 0 0 0 17.906 0H6.094a3.754 3.754 0 0 0-3.75 3.75v10.517l-2 2.7a.937.937 0 0 0-.106.183 2.812 2.812 0 0 0 2.577 3.938h18.372a2.812 2.812 0 0 0 2.577-3.938Zm-1.792 1.639a.922.922 0 0 1-.784.424h-5.906a.937.937 0 0 0-.937-.937H9.656a.937.937 0 0 0-.937.937H2.813a.938.938 0 0 1-.891-1.23l1.832-2.473h16.492l1.832 2.473a.92.92 0 0 1-.107.806ZM7.125 6.046a.937.937 0 0 1 .938.933v3.8a.937.937 0 1 1-1.875 0v-3.8a.937.937 0 0 1 .937-.933Zm3.281.933a.937.937 0 0 1 .937.937v2.863a.937.937 0 1 1-1.875 0V7.921a.937.937 0 0 1 .938-.942Zm6.562 1.453a.937.937 0 0 1 .937.937v1.41a.937.937 0 1 1-1.875 0v-1.4a.937.937 0 0 1 .938-.942Zm-3.281-4.734a.937.937 0 0 1 .937.937v6.144a.937.937 0 1 1-1.875 0v-6.14a.937.937 0 0 1 .938-.936Z"/></svg>