<svg xmlns="http://www.w3.org/2000/svg" width="18" height="9" class="injected-svg" data-src="static/media/hide.4f9c72e5.svg" style="outline:0" tabindex="0" fill="#fff"><path d="m8.347 8.466-.006-.084V6.768a9.06 9.06 0 0 1-2.512-.634l-.6 1.728a.67.67 0 0 1-.83.4.61.61 0 0 1-.425-.776l.66-1.916a12.189 12.189 0 0 1-1.88-1.276l-.936 1.3a.687.687 0 0 1-.914.166.592.592 0 0 1-.174-.86L1.8 3.413A8.267 8.267 0 0 1 .042.833.606.606 0 0 1 .428.039.674.674 0 0 1 1.276.4a7.254 7.254 0 0 0 1.69 2.37.68.68 0 0 1 .068.038.629.629 0 0 1 .22.233A9.217 9.217 0 0 0 9.035 5.57c3.222 0 7-2.974 7.674-5.109a.667.667 0 0 1 .819-.415.611.611 0 0 1 .444.767 6.543 6.543 0 0 1-1.41 2.278l1.3 1.8a.593.593 0 0 1-.178.856.687.687 0 0 1-.915-.166l-1.136-1.575a12.513 12.513 0 0 1-2.349 1.622l.639 1.857a.61.61 0 0 1-.425.776.67.67 0 0 1-.83-.4l-.58-1.684a8.889 8.889 0 0 1-2.429.6v1.606A.64.64 0 0 1 9 9a.647.647 0 0 1-.653-.534Z"/></svg>