<svg xmlns="http://www.w3.org/2000/svg" width="24" height="24"><path d="M17.509 24h-.053a13.83 13.83 0 0 1-5.356-1.249.937.937 0 0 1 .743-1.722 12.157 12.157 0 0 0 4.626 1.1h.043a5.774 5.774 0 0 0 4.177-1.52l.007-.007a1.686 1.686 0 0 0-.085-2.349C19.09 15.821 17.9 16 16.8 17.07l-1.751 1.738a.937.937 0 0 1-1.04.192 18.94 18.94 0 0 1-5.115-3.769l-.123-.123A18.944 18.944 0 0 1 5 9.991a.938.938 0 0 1 .191-1.042L6.93 7.2C8 6.1 8.178 4.91 5.751 2.393A1.686 1.686 0 0 0 3.4 2.308v.006a5.792 5.792 0 0 0-1.52 4.219C1.892 9.9 3.8 13.82 6.992 17.008a20.992 20.992 0 0 0 2.063 1.8.937.937 0 0 1-1.141 1.488 22.85 22.85 0 0 1-2.248-1.957C2.138 14.8.019 10.4 0 6.543A7.607 7.607 0 0 1 2.086.972l.037-.035.027-.024a3.567 3.567 0 0 1 4.95.178 8.72 8.72 0 0 1 2.294 3.452 3.864 3.864 0 0 1-1.125 3.968l-.005.005-1.259 1.268a19 19 0 0 0 3.091 4l.123.123a19 19 0 0 0 4 3.091l1.267-1.258.005-.005a3.864 3.864 0 0 1 3.968-1.126 8.72 8.72 0 0 1 3.45 2.291 3.567 3.567 0 0 1 .179 4.951l-.024.027-.035.037A7.591 7.591 0 0 1 17.509 24Z"/></svg>