<svg xmlns="http://www.w3.org/2000/svg" width="200" height="33.669"><g data-name="Grupo 2565"><g data-name="Grupo 2280" fill="#009b3c"><path data-name="Trazado 1748" d="M16.605 18.65v11.254h1.586V18.65l8.731 8.356a10.139 10.139 0 0 1-19.048 0Z"/><path data-name="Trazado 1749" d="M16.521 16.834q-4.653 4.388-9.309 8.774l-6.013-.7a27.815 27.815 0 0 1 0-16.15l6.013-.7Z"/><path data-name="Trazado 1750" d="m18.277 16.834 9.308-8.773 6.013.7a27.815 27.815 0 0 1 0 16.15l-6.013.7-9.308-8.777Z"/><path data-name="Trazado 1751" d="M7.874 6.661a10.139 10.139 0 0 1 19.048 0l-8.731 8.356V5.796l.8-.773a.263.263 0 0 0 0-.395l-.777-.746-.388-.373c-.075-.072-.148-.146-.225-.216l-.023-.019a.273.273 0 0 0-.055-.032.3.3 0 0 0-.13-.029.3.3 0 0 0-.131.028.346.346 0 0 0-.054.033l-.023.019c-.078.07-.15.143-.225.215l-.388.373-.777.746a.263.263 0 0 0 0 .4l.8.773v9.221Z"/></g><g fill="#fff"><path data-name="Trazado 1752" d="M43.765 8.689h5.672c2.091 0 5.226.6 5.226 4.173a3.628 3.628 0 0 1-3.228 3.636v.045a3.775 3.775 0 0 1 3.716 3.708c0 4.1-3.67 4.708-5.714 4.708H43.77V8.689Zm3.252 6.573h1.32c1.37 0 3.065-.3 3.065-1.981 0-1.888-1.649-2.029-3.135-2.029h-1.25v4.01Zm0 7.134h1.533c1.509 0 3.345-.372 3.345-2.263 0-2.12-1.718-2.446-3.345-2.446h-1.533v4.709Z"/><path data-name="Trazado 1753" d="M58.213 14.074a11.01 11.01 0 0 1 4.159-.876c3.646 0 5.155 1.46 5.155 4.871v1.481c0 1.166.024 2.042.047 2.895.024.875.07 1.684.139 2.581h-2.741a13.966 13.966 0 0 1-.139-1.727h-.046a4.308 4.308 0 0 1-3.694 2c-2.113 0-4.181-1.236-4.181-3.435a3.388 3.388 0 0 1 2.044-3.3 9.788 9.788 0 0 1 4.019-.673h1.718c0-1.863-.859-2.492-2.695-2.492a6.4 6.4 0 0 0-3.693 1.258Zm3.647 9.024a2.674 2.674 0 0 0 2.183-1.034 3.727 3.727 0 0 0 .65-2.378h-1.347c-1.393 0-3.46.225-3.46 2 0 .984.859 1.413 1.974 1.413Z"/><path data-name="Trazado 1754" d="M70.593 13.468h2.951v1.572h.045a4.524 4.524 0 0 1 3.926-1.842c2.833 0 4.064 1.931 4.064 4.534v7.294H78.47v-6.172c0-1.413-.023-3.321-2.02-3.321-2.253 0-2.741 2.356-2.741 3.838v5.655h-3.113V13.468Z"/><path data-name="Trazado 1755" d="M92.37 15.96a4.8 4.8 0 0 0-2.114-.427c-1.929 0-3.158 1.48-3.158 3.658 0 2.133 1.045 3.77 3.228 3.77a6.79 6.79 0 0 0 2.392-.537l.14 2.49a10.46 10.46 0 0 1-3.113.382c-3.926 0-5.9-2.58-5.9-6.106 0-3.344 2.045-5.992 5.784-5.992a10.437 10.437 0 0 1 3.019.382Z"/><path data-name="Trazado 1756" d="M100.181 13.198c3.555 0 6.272 2.312 6.272 6.127 0 3.322-2.3 5.97-6.272 5.97-3.948 0-6.247-2.648-6.247-5.97a5.886 5.886 0 0 1 6.247-6.127Zm0 9.763c2.393 0 3.021-2.064 3.021-3.994 0-1.773-.976-3.434-3.021-3.434-2.02 0-3 1.706-3 3.434.004 1.908.632 3.994 3 3.994Z"/><g data-name="Grupo 2281"><path data-name="Trazado 1757" d="M121.515 11.672a8.349 8.349 0 0 0-3.3-.7 2.259 2.259 0 0 0-2.555 2.262c0 2.819 7.108 1.632 7.108 7.087 0 3.566-2.811 4.919-6.086 4.919a14.271 14.271 0 0 1-4.157-.63l.3-2.938a7.813 7.813 0 0 0 3.67 1c1.23 0 2.88-.63 2.88-2.1 0-3.1-7.107-1.817-7.107-7.2 0-3.637 2.81-4.965 5.668-4.965a12.2 12.2 0 0 1 3.878.583Z"/><path data-name="Trazado 1758" d="M125.591 14.074a11.008 11.008 0 0 1 4.158-.876c3.647 0 5.157 1.46 5.157 4.871v1.481c0 1.166.022 2.042.046 2.895.023.875.069 1.684.139 2.581h-2.741a13.489 13.489 0 0 1-.139-1.727h-.046a4.307 4.307 0 0 1-3.694 2c-2.113 0-4.182-1.236-4.182-3.435a3.389 3.389 0 0 1 2.045-3.3 9.784 9.784 0 0 1 4.018-.673h1.72c0-1.863-.86-2.492-2.692-2.492a6.4 6.4 0 0 0-3.7 1.258Zm3.645 9.025a2.675 2.675 0 0 0 2.185-1.034 3.733 3.733 0 0 0 .65-2.378h-1.347c-1.394 0-3.462.225-3.462 2 0 .983.86 1.412 1.974 1.412Z"/><path data-name="Trazado 1759" d="M137.972 13.468h2.949v1.572h.046a4.523 4.523 0 0 1 3.925-1.842c2.834 0 4.065 1.931 4.065 4.534v7.294h-3.112v-6.172c0-1.413-.025-3.321-2.022-3.321-2.253 0-2.741 2.356-2.741 3.838v5.655h-3.111Z"/><path data-name="Trazado 1760" d="M153.186 15.667h-2.3v-2.2h2.3v-2.311l3.113-.965v3.277h2.763v2.2h-2.763v5.387c0 .988.278 1.907 1.462 1.907a2.862 2.862 0 0 0 1.419-.314l.092 2.379a8.439 8.439 0 0 1-2.3.27 3.456 3.456 0 0 1-3.786-3.748v-5.881Z"/><path data-name="Trazado 1761" d="M161.734 14.074a11 11 0 0 1 4.157-.876c3.647 0 5.158 1.46 5.158 4.871v1.481c0 1.166.021 2.042.045 2.895.023.875.07 1.684.14 2.581h-2.74a13.822 13.822 0 0 1-.14-1.727h-.044a4.306 4.306 0 0 1-3.693 2c-2.115 0-4.182-1.236-4.182-3.435a3.387 3.387 0 0 1 2.045-3.3 9.782 9.782 0 0 1 4.018-.673h1.72c0-1.863-.86-2.492-2.7-2.492a6.405 6.405 0 0 0-3.693 1.258Zm3.646 9.024a2.673 2.673 0 0 0 2.184-1.034 3.733 3.733 0 0 0 .651-2.378h-1.348c-1.394 0-3.461.225-3.461 2 .004.984.859 1.413 1.974 1.413Z"/></g><path data-name="Trazado 1762" d="M178.381 8.689h9.014v2.563h-5.76v4.01h5.48v2.565h-5.48v7.132h-3.253V8.689Z"/><path data-name="Trazado 1763" d="M199.115 24.375a8.445 8.445 0 0 1-4.111.921c-3.948 0-6.248-2.2-6.248-5.993 0-3.343 1.835-6.1 5.551-6.1 4.437 0 5.691 2.941 5.691 6.979h-8.269a3.093 3.093 0 0 0 3.416 2.92 8.267 8.267 0 0 0 3.97-1.173v2.446Zm-2.09-6.262c-.094-1.458-.79-2.716-2.532-2.716a2.665 2.665 0 0 0-2.763 2.716Z"/></g></g></svg>