<svg xmlns="http://www.w3.org/2000/svg" width="24" height="24" fill="rgb(48, 46, 56)"><defs><clipPath id="a"><path d="M0 0h24v24H0z"/></clipPath></defs><g data-name="Tamaño personalizado – 1" clip-path="url(#a)"><path fill="#fff" d="M0 0h24v24H0z"/><g transform="translate(-8.38 -12.02)"><g data-name="Grupo 1"><path data-name="Trazado 1" d="M14.605 17.695h-1.28v-1.3h3.37v1.3h-1.29v7.245h-.82v-7.245Z"/><path data-name="Trazado 2" d="M17.467 17.877c-.268 0-.457-.392-.457-.845 0-.483.189-.845.457-.845.283 0 .457.362.457.845.016.483-.173.845-.457.845Zm-.394 7.094v-6.185h.819v6.189Z"/><path data-name="Trazado 3" d="M19.34 22.314c.016 1.117.472 1.6.992 1.6a1.648 1.648 0 0 0 .9-.272l.126 1.057a1.7 1.7 0 0 1-1.134.392c-1.039 0-1.669-1.238-1.669-3.109 0-1.721.551-3.321 1.575-3.321 1.039 0 1.386 1.66 1.386 3.019a6.26 6.26 0 0 1-.031.664H19.34Zm1.417-1.117c0-.574-.126-1.509-.661-1.509-.5 0-.709.875-.756 1.509Z"/><path data-name="Trazado 4" d="M22.175 20.623c0-.725-.016-1.3-.031-1.842h.709l.047.936h.016c.142-.483.5-1.057 1.039-1.057.567 0 1.15.694 1.15 2.657v3.684h-.819v-3.5c0-.875-.173-1.57-.614-1.57-.331 0-.551.453-.63.906a2.292 2.292 0 0 0-.047.483v3.653h-.819Z"/><path data-name="Trazado 5" d="M28.946 15.914v7.275c0 .634.016 1.328.031 1.751h-.724l-.047-.966h-.016c-.189.694-.583 1.117-1.039 1.117-.772 0-1.386-1.268-1.386-3.17 0-2.083.661-3.291 1.449-3.291a1.009 1.009 0 0 1 .913.815h.019v-3.5h.8Zm-.819 5.434a3.792 3.792 0 0 0-.016-.423c-.079-.6-.331-1.087-.709-1.087-.52 0-.819.875-.819 2.023s.3 1.962.8 1.962c.331 0 .63-.423.709-1.117a4.375 4.375 0 0 0 .031-.453Z"/><path data-name="Trazado 6" d="M32.333 23.461c0 .574.016 1.117.047 1.479h-.737l-.063-.694h-.016a1.108 1.108 0 0 1-.961.815c-.646 0-1.008-.906-1.008-1.842 0-1.54.724-2.355 1.921-2.325v-.091c0-.392-.079-1.087-.661-1.087a1.171 1.171 0 0 0-.866.453l-.157-1a1.593 1.593 0 0 1 1.165-.543c1.039 0 1.339 1.268 1.339 2.626Zm-.8-1.54a1 1 0 0 0-1.134 1.147c0 .6.2.875.457.875.331 0 .567-.392.646-.845a2.566 2.566 0 0 0 .016-.332v-.845Z"/></g><g data-name="Grupo 2"><path data-name="Trazado 7" d="M26.395 34.993a1.231 1.231 0 0 1-.835.3c-.913 0-1.512-1.117-1.512-2.868 0-1.691.6-2.989 1.622-2.989a1.27 1.27 0 0 1 .709.242l-.126 1.057a.759.759 0 0 0-.551-.211c-.567 0-.9.785-.9 1.811 0 1.147.394 1.811.9 1.811a.871.871 0 0 0 .583-.211Z"/><path data-name="Trazado 8" d="M26.947 26.963h.74v8.181h-.74Z"/><path data-name="Trazado 9" d="M28.852 28.745c-.252 0-.409-.332-.409-.755s.173-.785.409-.785c.252 0 .409.332.409.785.016.423-.157.755-.409.755Zm-.362 6.4V29.53h.74v5.615Z"/><path data-name="Trazado 10" d="M32.175 34.993a1.231 1.231 0 0 1-.835.3c-.911.002-1.511-1.115-1.511-2.866 0-1.691.6-2.989 1.622-2.989a1.27 1.27 0 0 1 .709.242l-.131 1.056a.759.759 0 0 0-.551-.211c-.567 0-.9.785-.9 1.811 0 1.147.394 1.811.9 1.811a.871.871 0 0 0 .583-.211Z"/></g><ellipse data-name="Elipse 1" cx="1.087" cy="2.083" rx="1.087" ry="2.083" transform="translate(12.175 31.854)"/><ellipse data-name="Elipse 2" cx="1.087" cy="2.083" rx="1.087" ry="2.083" transform="translate(21.026 31.854)"/><g data-name="Grupo 3"><path data-name="Trazado 11" d="M22.679 29.348H12.128L10.16 13.771H8.837c-.252 0-.457-.392-.457-.875s.2-.875.457-.875h2.047L12.852 27.6h9.827c.252 0 .457.392.457.875s-.205.873-.457.873Z"/></g></g></g></svg>