<svg xmlns="http://www.w3.org/2000/svg" width="20.189" height="15.89"><path d="M3.155 15.89A3.158 3.158 0 0 1 0 12.736V3.155A3.158 3.158 0 0 1 3.155 0h13.88a3.158 3.158 0 0 1 3.155 3.155v5.678a.789.789 0 0 1-1.578 0V3.155a1.579 1.579 0 0 0-1.577-1.578H3.155a1.58 1.58 0 0 0-1.578 1.578v9.581a1.58 1.58 0 0 0 1.578 1.578h13.88a1.579 1.579 0 0 0 1.577-1.578.789.789 0 0 1 1.578 0 3.158 3.158 0 0 1-3.155 3.155Zm1.308-3.39a1.31 1.31 0 0 1-1.281-1.579A3.861 3.861 0 0 1 4.973 8.4a2.484 2.484 0 1 1 4.012 0 3.867 3.867 0 0 1 1.791 2.518A1.311 1.311 0 0 1 9.5 12.5Zm8.431-1.656a.788.788 0 1 1 0-1.577H15.1a.788.788 0 0 1 0 1.577Zm0-3.193a.789.789 0 1 1 0-1.578h3.39a.789.789 0 1 1 0 1.578Z" fill="#f3f4fa"/></svg>